<svg id="Component_1_1" data-name="Component 1 – 1" xmlns="http://www.w3.org/2000/svg" xmlns:xlink="http://www.w3.org/1999/xlink" width="388.745" height="109.724" viewBox="0 0 388.745 109.724">
  <defs>
    <clipPath id="clip-path">
      <path id="Path_8" data-name="Path 8" d="M141.482,127.2a9.717,9.717,0,0,1,0-13.741l31.1-31.1a9.649,9.649,0,0,1,.951-.835c-1.385,16.351-7.77,25.554-10.782,28.876-.9.987-6.214,5.787-6.214,5.787a5.864,5.864,0,0,0,0,8.292l6.407,6.417c3.123,3.54,9.051,12.2,9.48,27.251Z" transform="translate(-138.637 -81.521)" fill="none"/>
    </clipPath>
    <linearGradient id="linear-gradient" x1="-13.471" y1="0.119" x2="-13.448" y2="0.119" gradientUnits="objectBoundingBox">
      <stop offset="0" stop-color="#1c2343"/>
      <stop offset="1" stop-color="#1c2343"/>
    </linearGradient>
    <clipPath id="clip-path-2">
      <path id="Path_11" data-name="Path 11" d="M213.34,156.419a39.4,39.4,0,0,0-1.418-19.065l3.121,3.12a5.865,5.865,0,0,0,8.293,0L242.106,121.7a5.864,5.864,0,0,0,0-8.292l-18.77-18.77a5.864,5.864,0,0,0-8.292,0l-.841.842a72.6,72.6,0,0,0,.66-17.731,9.717,9.717,0,0,1,11.2,1.832l31.1,31.1a9.715,9.715,0,0,1,0,13.741l-31.1,31.1a9.718,9.718,0,0,1-12.72.887" transform="translate(-211.922 -76.739)" fill="none"/>
    </clipPath>
    <linearGradient id="linear-gradient-2" x1="-10.579" y1="0.128" x2="-10.563" y2="0.128" xlink:href="#linear-gradient"/>
  </defs>
  <g id="Group_1" data-name="Group 1" transform="translate(128.424 57.994)">
    <path id="Path_1" data-name="Path 1" d="M374.969,218.2H346.622a5.512,5.512,0,0,1-5.5-5.5V191.064a5.512,5.512,0,0,1,5.5-5.5h28.347a5.482,5.482,0,0,1,5.5,5.5v4.289h-7.832v-3.87H348.953v20.794h23.685v-6.108h7.832V212.7A5.482,5.482,0,0,1,374.969,218.2Z" transform="translate(-341.12 -185.563)" fill="#fdad01"/>
    <path id="Path_2" data-name="Path 2" d="M469.71,185.563h8.533L462.39,207.15l-.373.466V218.2h-7.833V207.616l-.326-.466-15.852-21.587h8.532L458.1,201.322Z" transform="translate(-393.714 -185.563)" fill="#fdad01"/>
  </g>
  <g id="Group_2" data-name="Group 2" transform="translate(217.498 58.192)">
    <path id="Path_3" data-name="Path 3" d="M573,191.452V197a5.324,5.324,0,0,1-2.728,4.254c2.451.74,4.763,2.774,4.763,5.133v6.52a5.467,5.467,0,0,1-5.457,5.456H535.964V186h31.583A5.466,5.466,0,0,1,573,191.452Zm-5.734,21.04v-7.954H547.155l5.271-5.873h12.809v-6.8h-21.5v20.624Z" transform="translate(-535.964 -185.996)" fill="#162244"/>
    <path id="Path_4" data-name="Path 4" d="M661.7,218.364l-3.468-8.046h-8.971v-5.873h6.427l-5.41-12.485-11.468,26.4h-8.463L644.406,186h11.7l14.057,32.368Z" transform="translate(-587.2 -185.996)" fill="#162244"/>
    <path id="Path_5" data-name="Path 5" d="M731.895,191.868v6.8h25.849a5.467,5.467,0,0,1,5.456,5.457v8.786a5.466,5.466,0,0,1-5.456,5.456H729.582a5.466,5.466,0,0,1-5.456-5.456v-1.573l7.769-2.866v4.023h23.536v-7.954H729.582a5.466,5.466,0,0,1-5.456-5.456v-7.63A5.466,5.466,0,0,1,729.582,186h28.161a5.466,5.466,0,0,1,5.456,5.456v4.254h-7.768v-3.838Z" transform="translate(-638.107 -185.996)" fill="#162244"/>
    <path id="Path_6" data-name="Path 6" d="M858.9,198.666v5.873H832.955v7.954h31.258v5.873h-33.57a5.466,5.466,0,0,1-5.456-5.456V191.452A5.466,5.466,0,0,1,830.643,186H863.1v5.872H832.955v6.8Z" transform="translate(-692.967 -185.996)" fill="#162244"/>
  </g>
  <g id="Group_3" data-name="Group 3" transform="translate(36.735 18.704)">
    <path id="Path_7" data-name="Path 7" d="M141.847,100.324a7.9,7.9,0,0,0-.813-.707c3.405,15.288,14.03,28.023,14.03,28.023a4.769,4.769,0,0,1-.487,6.1l-8.82,8.821c-.459.533-5.442,6.631-5.191,18.98a4.948,4.948,0,0,0,1.282-.964L166.522,135.9a7.708,7.708,0,0,0,0-10.9Z" transform="translate(-140.556 -99.617)" fill="#f7ab14"/>
  </g>
  <g id="Group_5" data-name="Group 5" transform="translate(35.857 10.431)">
    <g id="Group_4" data-name="Group 4" clip-path="url(#clip-path)">
      <rect id="Rectangle_1" data-name="Rectangle 1" width="35.848" height="76.622" transform="translate(-0.949 0)" fill="url(#linear-gradient)"/>
    </g>
  </g>
  <g id="Group_6" data-name="Group 6" transform="translate(0 16.959)">
    <path id="Path_9" data-name="Path 9" d="M155.31,127.164l.248.307a4.685,4.685,0,0,1,.908,2.732h12.841a7.684,7.684,0,0,0-2.258-5.421l-24.674-24.676a7.384,7.384,0,0,0-.825-.71c3.048,13.828,12.026,25.592,13.761,27.767" transform="translate(-104.36 -97.753)" fill="#f7ab14"/>
    <path id="Path_10" data-name="Path 10" d="M95.874,110l4.425,4.425A84.417,84.417,0,0,1,95.967,96.58a7.709,7.709,0,0,0-8.832,1.478L62.459,122.734a7.708,7.708,0,0,0,0,10.9L87.135,158.31a7.709,7.709,0,0,0,8.525,1.621,30.591,30.591,0,0,1-.757-12.821,4.653,4.653,0,0,1-5.607-.746L74.4,131.473a4.65,4.65,0,0,1,0-6.578L89.3,110a4.652,4.652,0,0,1,6.578,0" transform="translate(-60.201 -95.8)" fill="#f7ab14"/>
  </g>
  <g id="Group_8" data-name="Group 8" transform="translate(69.36 8.245)">
    <g id="Group_7" data-name="Group 7" transform="translate(0 0)" clip-path="url(#clip-path-2)">
      <rect id="Rectangle_2" data-name="Rectangle 2" width="49.037" height="82.432" transform="translate(0 -0.795)" fill="url(#linear-gradient-2)"/>
    </g>
  </g>
  <text id="MANAGING_YOUR_BUSINESS" data-name="MANAGING YOUR BUSINESS" transform="translate(128.671 106.724)" fill="#1b2443" font-size="11" font-family="SegoeUI, Segoe UI" letter-spacing="0.462em"><tspan x="0" y="0">MANAGING YOUR BUSINESS</tspan></text>
  <g id="Group_9" data-name="Group 9" transform="translate(200.364 7.936)">
    <path id="Path_12" data-name="Path 12" d="M498.485,121.972h16.828v7.223H498.485Z" transform="translate(-498.485 -100.984)" fill="#162244"/>
    <path id="Path_13" data-name="Path 13" d="M533.393,121.972H550.22v7.223H533.393Z" transform="translate(-517.435 -100.984)" fill="#162244"/>
    <path id="Path_14" data-name="Path 14" d="M613.547,121.972h16.828v7.223H613.547Z" transform="translate(-560.946 -100.984)" fill="#162244"/>
    <path id="Path_15" data-name="Path 15" d="M767.073,121.972H783.9v7.223H767.073Z" transform="translate(-644.286 -100.984)" fill="#fdad01"/>
    <path id="Path_16" data-name="Path 16" d="M814.152,93.5a4.246,4.246,0,0,0,.567,2.344,3.318,3.318,0,0,0,1.815,1.286q1.965,0,3.195-.019t1.929-.075q.7-.057,1.021-.095a1.093,1.093,0,0,0,.435-.113,2.679,2.679,0,0,0,1.55-1.191,4.552,4.552,0,0,0,.454-2.212V76.063H832.8V93.5a4.246,4.246,0,0,0,.567,2.344,3.31,3.31,0,0,0,1.74,1.286h6.429a3.413,3.413,0,0,0,2.382-3.63V76.063h7.525V96.219a11.617,11.617,0,0,1-.945,5.294,4.6,4.6,0,0,1-3.214,2.307,21.023,21.023,0,0,1-5.105.454h-6.958a10.559,10.559,0,0,1-1.815-.151,4.479,4.479,0,0,1-1.626-.624,5.438,5.438,0,0,1-1.437-1.381,10.844,10.844,0,0,1-1.286-2.382,8.885,8.885,0,0,1-1,2.08,5.978,5.978,0,0,1-1.134,1.267,4.1,4.1,0,0,1-1.248.7,11.636,11.636,0,0,1-1.38.378,8.344,8.344,0,0,1-1.418.095q-1.116.019-2.893.019H816.5a10.233,10.233,0,0,1-1.8-.151,4.661,4.661,0,0,1-1.626-.624,5.536,5.536,0,0,1-1.475-1.381,10.323,10.323,0,0,1-1.3-2.382,9.945,9.945,0,0,1-.983,2.1,5.708,5.708,0,0,1-1.1,1.286,3.931,3.931,0,0,1-1.21.7,7.821,7.821,0,0,1-1.324.34,3.272,3.272,0,0,1-.567.095q-.265.019-1.021.019h-1.286V97.126a7.022,7.022,0,0,0,1.55-.227q2.155-.756,2.156-3.479V76.063h7.639Z" transform="translate(-663.685 -76.063)" fill="#fdad01"/>
  </g>
  <path id="Path_17" data-name="Path 17" d="M751.1,84.073V58.7l-7.6,5.134V86.682a11.845,11.845,0,0,0,.945,5.351A4.681,4.681,0,0,0,747.62,94.4a23.531,23.531,0,0,0,5.18.453h2.08V87.627h-1.4Q751.1,87.06,751.1,84.073Z" transform="translate(-431.125 -58.704)" fill="#fdad01"/>
  <g id="Group_10" data-name="Group 10" transform="translate(286.205 8.088)">
    <rect id="Rectangle_3" data-name="Rectangle 3" width="7.677" height="6.05" transform="translate(2.382 32.483)" fill="#162244"/>
    <rect id="Rectangle_4" data-name="Rectangle 4" width="7.639" height="6.05" transform="translate(13.387 32.483)" fill="#162244"/>
    <path id="Path_18" data-name="Path 18" d="M699.681,81.53V93.677q0,2.988-2.42,3.554h-11v7.223h11.685A24.623,24.623,0,0,0,703.2,104a4.594,4.594,0,0,0,3.12-2.326,11.751,11.751,0,0,0,.965-5.389V76.4Z" transform="translate(-686.257 -76.396)" fill="#162244"/>
  </g>
  <g id="Group_11" data-name="Group 11" transform="translate(269.151 8.218)">
    <rect id="Rectangle_5" data-name="Rectangle 5" width="7.639" height="6.05" transform="translate(4.651 32.353)" fill="#162244"/>
    <path id="Path_19" data-name="Path 19" d="M663.661,97.461a3.31,3.31,0,0,1-1.777-1.286,4.241,4.241,0,0,1-.567-2.344V76.68l-7.639,5.16V93.755q0,2.761-2.231,3.479-.227.038-.964.076t-1.531.113v7.185l1.853.076h.681a9.787,9.787,0,0,0,2.647-.3,5.33,5.33,0,0,0,2.042-1,4.469,4.469,0,0,0,1.21-1.55,14.475,14.475,0,0,0,.719-1.872,5.289,5.289,0,0,0,1.3,2.572,6.034,6.034,0,0,0,2.137,1.418,8.175,8.175,0,0,0,2.534.548q.908.076,1.777.076h.643V97.461Z" transform="translate(-648.951 -76.68)" fill="#162244"/>
  </g>
  <g id="Group_12" data-name="Group 12" transform="translate(232.583 8.029)">
    <path id="Path_20" data-name="Path 20" d="M585.941,97.237a3.319,3.319,0,0,1-1.815-1.286,4.245,4.245,0,0,1-.567-2.344V76.267l-7.639,5.16v12.1a4.317,4.317,0,0,1-.511,2.269,2.926,2.926,0,0,1-1.683,1.21l-4.764.151v7.223h2.118q1.815,0,2.893-.019a8.009,8.009,0,0,0,1.38-.095,7.815,7.815,0,0,0,1.323-.34,4.18,4.18,0,0,0,1.229-.7,5.471,5.471,0,0,0,1.115-1.286,9.951,9.951,0,0,0,.983-2.1,9.279,9.279,0,0,0,1.153,2.193,5.6,5.6,0,0,0,1.324,1.3,4.91,4.91,0,0,0,1.456.681,12.2,12.2,0,0,0,1.588.321h4.425V97.237Z" transform="translate(-568.962 -76.267)" fill="#162244"/>
    <rect id="Rectangle_6" data-name="Rectangle 6" width="7.677" height="6.05" transform="translate(1.323 32.542)" fill="#162244"/>
    <rect id="Rectangle_7" data-name="Rectangle 7" width="7.639" height="6.05" transform="translate(12.328 32.542)" fill="#162244"/>
  </g>
  <path id="Path_21" data-name="Path 21" d="M410.765,97.037q-2.345-.756-2.345-3.63V75.973h-7.677V93.331a4.514,4.514,0,0,1-.473,2.231,2.758,2.758,0,0,1-1.645,1.21,3.617,3.617,0,0,1-.794.113q-.567.038-1.191.075t-1.248.057q-.624.019-.965.019h-2.458q-2.345-.756-2.345-3.63V75.973h-7.639V93.331q0,2.761-2.193,3.479a2.24,2.24,0,0,1-.586.113q-.4.038-1.267.076h-6.807V75.9H363.5v28.059q0,2.949-2.382,3.555H349.845q-2.421-.568-2.42-3.555V75.973h-.088L339.748,81.1v33.6h22.084a27.3,27.3,0,0,0,5.218-.416,4.583,4.583,0,0,0,3.12-2.344,11.88,11.88,0,0,0,.965-5.408v-2.345h6.05a41.413,41.413,0,0,0,4.349-.113,7.823,7.823,0,0,0,1.323-.34,3.928,3.928,0,0,0,1.21-.7,5.72,5.72,0,0,0,1.1-1.286,9.936,9.936,0,0,0,.983-2.1,10.309,10.309,0,0,0,1.3,2.382,5.544,5.544,0,0,0,1.475,1.381,4.659,4.659,0,0,0,1.626.624,10.233,10.233,0,0,0,1.8.151h2.609q1.21,0,2.345-.019t1.966-.038a6.127,6.127,0,0,0,.945-.057,7.817,7.817,0,0,0,1.323-.34,4.173,4.173,0,0,0,1.229-.7,5.471,5.471,0,0,0,1.115-1.286,9.933,9.933,0,0,0,.983-2.1,9.257,9.257,0,0,0,1.153,2.193,5.6,5.6,0,0,0,1.323,1.3,4.912,4.912,0,0,0,1.456.681,12.189,12.189,0,0,0,1.589.321h2.534L413,97.037Z" transform="translate(-211.951 -68.038)" fill="#162244"/>
</svg>
