<svg id="Component_2_1" data-name="Component 2 – 1" xmlns="http://www.w3.org/2000/svg" xmlns:xlink="http://www.w3.org/1999/xlink" width="2593.203" height="1728.803" viewBox="0 0 2593.203 1728.803">
  <defs>
    <clipPath id="clip-path">
      <rect id="Rectangle_32" data-name="Rectangle 32" width="2593.203" height="1728.803" rx="4.704" fill="none"/>
    </clipPath>
    <linearGradient id="linear-gradient" x1="0.893" y1="0.706" x2="0.789" y2="0.921" gradientUnits="objectBoundingBox">
      <stop offset="0" stop-color="#e19e36"/>
      <stop offset="1" stop-color="#e3be4a"/>
    </linearGradient>
    <clipPath id="clip-path-2">
      <path id="Path_36" data-name="Path 36" d="M626.3-132.964C282.541-81.653,268.116,192.329,377.291,344.7,531.94,560.563,673.141,525.409,457.421,880.963c-73.24,120.713-101.4,274.852-45.921,408.151,39.9,95.873,122.411,174.473,222.071,203.662,55.44,16.235,114.08,17.4,170.85,28.134s115.109,33.708,148.2,81.062c31.869,45.608,34.545,105.628,26.895,160.738-18.383,132.544-90.847,253.9-97.322,388.5-5.459,113.449,32.066,243.7,112.18,326.232,104.878,108.038,267.807,131.283,411.106,139.6,168.071,9.755,337.484-15.428,497.287-67.576,204.708-66.808,393.773-177.042,562.033-311.43,149.791-119.641,285.139-260.307,380.986-426.324,151.583-262.571,239.326-690.662-69.522-878.561-371.818-226.221-611.667,165.978-631.847-219.922-12.071-230.921-177.483-592-628.562-412.139S1121.373-206.865,626.3-132.964Z" transform="translate(-316.876 138.544)" fill="none"/>
    </clipPath>
    <linearGradient id="linear-gradient-2" x1="0.502" y1="0.68" x2="0.462" y2="1.08" xlink:href="#linear-gradient"/>
    <linearGradient id="linear-gradient-3" x1="0.633" y1="0.428" x2="0.273" y2="1.032" xlink:href="#linear-gradient"/>
  </defs>
  <g id="Group_29" data-name="Group 29">
    <g id="Group_28" data-name="Group 28">
      <g id="Group_27" data-name="Group 27">
        <rect id="Rectangle_31" data-name="Rectangle 31" width="2593.203" height="1728.803" rx="4.704" fill="#fff"/>
        <g id="Group_26" data-name="Group 26">
          <g id="Group_25" data-name="Group 25" clip-path="url(#clip-path)">
            <path id="Path_33" data-name="Path 33" d="M647.58-132.964C280.18-81.653,264.763,192.329,381.445,344.7,546.729,560.563,697.64,525.409,467.086,880.963c-78.276,120.713-108.377,274.852-49.079,408.151,42.649,95.873,130.829,174.473,237.341,203.662,59.253,16.235,121.924,17.4,182.6,28.134s123.024,33.708,158.391,81.062c34.06,45.608,36.92,105.628,28.744,160.738-19.647,132.544-97.094,253.9-104.014,388.5-5.834,113.449,34.271,243.7,119.894,326.232,112.089,108.038,286.223,131.283,439.375,139.6,179.628,9.755,360.691-15.428,531.483-67.576,218.785-66.808,420.851-177.042,600.681-311.43,160.091-119.641,304.747-260.307,407.185-426.324,162.007-262.571,255.783-690.662-74.3-878.561-397.386-226.221-653.728,165.978-675.3-219.922-12.9-230.921-189.688-592-671.785-412.139S1176.694-206.865,647.58-132.964Z" transform="translate(-569.913 448.519)" fill="url(#linear-gradient)"/>
            <g id="Group_24" data-name="Group 24" transform="translate(-1121.036 -270.025)">
              <g id="Group_23" data-name="Group 23" clip-path="url(#clip-path-2)">
                <path id="Path_34" data-name="Path 34" d="M2232.818,1548.514c-6.925,232.6-187.929,263.853-297.862,203.332-155.747-85.74-143.539-182.393-362.852-10.853-74.458,58.236-174.7,89.149-267.712,62.807-66.894-18.945-125.675-67.58-152.964-131.528-15.175-35.574-20.591-74.467-32.212-111.357s-31.513-73.862-65.616-92.116c-32.838-17.581-72.953-14.609-108.986-5.167-86.666,22.705-161.613,80.478-250.582,95.431-74.994,12.6-164.55-2.037-225.758-48.777-80.118-61.174-108.458-167.655-125.323-262.267-19.777-110.962-16.436-225.582,5.6-335.944C376.771,770.7,435.1,636.283,511.137,513.79c67.687-109.041,150.5-210.15,253.292-287C927,105.244,1204.655,13.059,1354,203.518c179.8,229.3-61.971,419.776,196.179,402.667,154.473-10.236,407.607,71.173,323.711,385.274S2242.792,1213.542,2232.818,1548.514Z" transform="translate(378.083 -54.211)" opacity="0.25" fill="url(#linear-gradient-2)"/>
                <path id="Path_35" data-name="Path 35" d="M1926.435,1799.9c-80.213,204.451-250.989,174.589-329.392,85.813-111.07-125.773-69.454-207.761-318.934-125.186-84.694,28.035-183.611,23.58-257.854-29.433-53.4-38.138-90.144-100.062-94.02-165.566-2.161-36.444,5.411-72.721,6.827-109.2s-4.481-75.663-28.962-102.738c-23.58-26.08-60.17-36.208-95.191-39.3-84.23-7.414-169.216,20.047-253.022,5-70.646-12.68-145.554-54.205-185.056-115.22-51.706-79.865-42.984-183.5-27.838-272.927,17.761-104.886,57.229-205.66,111.94-296.7,70.1-116.627,164.718-217.478,271.276-302.1,94.865-75.329,200.639-138.8,316.438-174.344,183.143-56.225,459.2-49.725,531.24,167.055,86.739,260.976-188.722,353.23,46.088,420.226,140.507,40.089,339.491,193.028,164.936,445.393S2041.955,1505.452,1926.435,1799.9Z" transform="translate(658.609 -339.633)" opacity="0.39" fill="url(#linear-gradient-3)"/>
              </g>
            </g>
          </g>
        </g>
      </g>
    </g>
  </g>
</svg>
