<svg id="Group_29" data-name="Group 29" xmlns="http://www.w3.org/2000/svg" xmlns:xlink="http://www.w3.org/1999/xlink" width="2593.203" height="1728.802" viewBox="0 0 2593.203 1728.802">
  <defs>
    <clipPath id="clip-path">
      <rect id="Rectangle_32" data-name="Rectangle 32" width="2593.203" height="1728.802" rx="4.704" fill="none"/>
    </clipPath>
    <linearGradient id="linear-gradient" x1="0.107" y1="0.294" x2="0.211" y2="0.079" gradientUnits="objectBoundingBox">
      <stop offset="0" stop-color="#e19e36"/>
      <stop offset="1" stop-color="#e3be4a"/>
    </linearGradient>
    <clipPath id="clip-path-2">
      <path id="Path_36" data-name="Path 36" d="M2674.326,2613.524c343.761-51.311,358.187-325.293,249.012-477.665C2768.689,1920,2627.488,1955.151,2843.208,1599.6c73.24-120.713,101.4-274.852,45.921-408.151-39.9-95.873-122.411-174.473-222.071-203.662-55.44-16.235-114.08-17.4-170.85-28.134s-115.109-33.708-148.2-81.062c-31.869-45.608-34.545-105.628-26.895-160.738,18.383-132.544,90.847-253.9,97.322-388.5,5.459-113.449-32.066-243.7-112.18-326.232-104.878-108.038-267.807-131.283-411.106-139.6-168.071-9.755-337.484,15.428-497.287,67.576C1193.155-2.095,1004.09,108.139,835.83,242.527,686.039,362.168,550.691,502.834,454.844,668.851c-151.583,262.571-239.326,690.662,69.522,878.561,371.818,226.221,611.667-165.978,631.847,219.922,12.071,230.921,177.483,592,628.562,412.139S2179.256,2687.424,2674.326,2613.524Z" transform="translate(-316.876 138.544)" fill="none"/>
    </clipPath>
    <linearGradient id="linear-gradient-2" x1="0.498" y1="0.32" x2="0.538" y2="-0.08" xlink:href="#linear-gradient"/>
    <linearGradient id="linear-gradient-3" x1="0.367" y1="0.572" x2="0.727" y2="-0.032" xlink:href="#linear-gradient"/>
  </defs>
  <g id="Group_28" data-name="Group 28">
    <g id="Group_27" data-name="Group 27">
      <rect id="Rectangle_31" data-name="Rectangle 31" width="2593.203" height="1728.802" rx="4.704" fill="#fff"/>
      <g id="Group_26" data-name="Group 26">
        <g id="Group_25" data-name="Group 25" clip-path="url(#clip-path)">
          <path id="Path_33" data-name="Path 33" d="M2674.326,2613.524c343.761-51.311,358.187-325.293,249.012-477.665C2768.689,1920,2627.488,1955.151,2843.208,1599.6c73.24-120.713,101.4-274.852,45.921-408.151-39.9-95.873-122.411-174.473-222.071-203.662-55.44-16.235-114.08-17.4-170.85-28.134s-115.109-33.708-148.2-81.062c-31.869-45.608-34.545-105.628-26.895-160.738,18.383-132.544,90.847-253.9,97.322-388.5,5.459-113.449-32.066-243.7-112.18-326.232-104.878-108.038-267.807-131.283-411.106-139.6-168.071-9.755-337.484,15.428-497.287,67.576C1193.155-2.095,1004.09,108.139,835.83,242.527,686.039,362.168,550.691,502.834,454.844,668.851c-151.583,262.571-239.326,690.662,69.522,878.561,371.818,226.221,611.667-165.978,631.847,219.922,12.071,230.921,177.483,592,628.562,412.139S2179.256,2687.424,2674.326,2613.524Z" transform="translate(730.486 -620.276)" fill="url(#linear-gradient)"/>
          <g id="Group_24" data-name="Group 24" transform="translate(1047.363 -758.819)">
            <g id="Group_23" data-name="Group 23" clip-path="url(#clip-path-2)">
              <path id="Path_34" data-name="Path 34" d="M330.055,359.1c6.925-232.6,187.929-263.853,297.862-203.332,155.747,85.74,143.539,182.393,362.852,10.853,74.458-58.236,174.7-89.149,267.712-62.807,66.894,18.945,125.675,67.58,152.964,131.528,15.175,35.574,20.591,74.467,32.212,111.357s31.513,73.862,65.616,92.116c32.838,17.581,72.953,14.609,108.986,5.167,86.666-22.705,161.613-80.478,250.582-95.431,74.994-12.6,164.55,2.037,225.758,48.777,80.118,61.174,108.458,167.655,125.323,262.267,19.777,110.962,16.436,225.582-5.6,335.944-28.224,141.378-86.555,275.792-162.591,398.284-67.687,109.041-150.5,210.15-253.292,287-162.569,121.545-440.226,213.73-589.575,23.271-179.8-229.3,61.971-419.776-196.179-402.667-154.473,10.236-407.607-71.173-323.711-385.274S320.081,694.076,330.055,359.1Z" transform="translate(-274.079 904.24)" opacity="0.25" fill="url(#linear-gradient-2)"/>
              <path id="Path_35" data-name="Path 35" d="M351.254,282.013C431.467,77.562,602.244,107.424,680.647,196.2,791.716,321.973,750.1,403.961,999.58,321.386c84.694-28.035,183.611-23.58,257.854,29.433,53.4,38.138,90.144,100.062,94.02,165.566,2.161,36.444-5.411,72.721-6.827,109.2s4.481,75.663,28.962,102.738c23.58,26.08,60.17,36.208,95.191,39.3,84.23,7.414,169.216-20.047,253.022-5,70.646,12.68,145.554,54.205,185.056,115.22,51.706,79.865,42.984,183.5,27.838,272.927-17.761,104.886-57.229,205.66-111.94,296.7-70.1,116.627-164.718,217.478-271.276,302.1-94.865,75.329-200.639,138.8-316.438,174.344-183.143,56.225-459.2,49.725-531.24-167.054-86.739-260.976,188.722-353.23-46.088-420.226C517.207,1296.535,318.223,1143.6,492.778,891.232S235.734,576.457,351.254,282.013Z" transform="translate(-269.422 1015.37)" opacity="0.39" fill="url(#linear-gradient-3)"/>
            </g>
          </g>
        </g>
      </g>
    </g>
  </g>
</svg>
